<svg xmlns="http://www.w3.org/2000/svg" version="1.1" xmlns:xlink="http://www.w3.org/1999/xlink" xmlns:svgjs="http://svgjs.dev/svgjs" width="1000" height="1125" viewBox="0 0 1000 1125"><g transform="matrix(1,0,0,1,0,0)"><svg viewBox="0 0 320 360" data-background-color="#ffffff" preserveAspectRatio="xMidYMid meet" height="1125" width="1000" xmlns="http://www.w3.org/2000/svg" xmlns:xlink="http://www.w3.org/1999/xlink"><g id="tight-bounds" transform="matrix(1,0,0,1,0,0)"><svg viewBox="0 0 320 360" height="360" width="320"><g><svg></svg></g><g><svg viewBox="0 0 320 360" height="360" width="320"><g><path xmlns="http://www.w3.org/2000/svg" d="M320 141.95l-19.957-19.957v-28.224l-53.812-53.812h-28.223l-19.958-19.957h-76.1l-19.957 19.957h-28.224l-53.812 53.812v28.224l-19.957 19.957v76.104l19.957 19.958v28.223l53.816 53.808h28.224l19.957 19.957h76.104l19.958-19.957h28.223l53.812-53.812v-28.224l19.949-19.957zM244.374 44.437l51.189 51.189v21.887l-73.076-73.076zM295.563 123.849v112.306l-79.408 79.408h-112.306l-79.412-79.412v-112.302l79.412-79.412h112.306zM123.807 24.48h72.39l15.478 15.477h-103.346zM24.437 95.626l51.189-51.189h21.887l-73.076 73.076zM4.484 216.197v-72.394l15.477-15.478v103.342zM75.626 315.563l-51.189-51.189v-21.887l73.076 73.076zM196.197 335.52h-72.39l-15.478-15.477h103.342zM295.563 264.374l-51.189 51.189h-21.887l73.076-73.076zM315.52 216.197l-15.477 15.478v-103.346l15.477 15.478z" fill="#c56e33" fill-rule="nonzero" stroke="none" stroke-width="1" stroke-linecap="butt" stroke-linejoin="miter" stroke-miterlimit="10" stroke-dasharray="" stroke-dashoffset="0" font-family="none" font-weight="none" font-size="none" text-anchor="none" style="mix-blend-mode: normal" data-fill-palette-color="tertiary"></path></g><g transform="matrix(1,0,0,1,56,136.98210947213715)"><svg viewBox="0 0 208 86.03578105572568" height="86.03578105572568" width="208"><g><svg viewBox="0 0 208 86.03578105572568" height="86.03578105572568" width="208"><g transform="matrix(1,0,0,1,0,53.1735642767912)"><svg viewBox="0 0 208 32.86221677893448" height="32.86221677893448" width="208"><g><svg viewBox="0 0 208 32.86221677893448" height="32.86221677893448" width="208"><g><svg viewBox="0 0 208 32.86221677893448" height="32.86221677893448" width="208"><g transform="matrix(1,0,0,1,0,0)"><svg width="208" viewBox="5.650000095367432 -37.04999923706055 245.04000854492188 38.70000076293945" height="32.86221677893448" data-palette-color="#c56e33"><g class="undefined-text-0" data-fill-palette-color="primary" id="text-0"><path d="M5.65 0L5.65-35.5 8.1-35.5 8.1 0 5.65 0ZM49.2 0.85L49.1 0.85 21.1-30.7 21.75-31.2 21.8 0 19.4 0 19.4-36.25 19.55-36.25 47.55-4.45 46.9-4.25 46.85-35.5 49.2-35.5 49.2 0.85ZM57.3-35.5L60.15-35.5 73.25-2.25 71.9-2.45 84.7-35.5 87.5-35.5 72.4 1.65 57.3-35.5ZM95.59 0L95.59-35.5 117.49-35.5 117.49-33.15 98.04-33.15 98.04-19.05 115.54-19.05 115.54-16.7 98.04-16.7 98.04-2.35 118.19-2.35 118.19 0 95.59 0ZM127.54-35.5L135.64-35.5Q137.64-35.5 139.62-34.93 141.59-34.35 143.22-33.13 144.84-31.9 145.84-30 146.84-28.1 146.84-25.45L146.84-25.45Q146.84-23.45 146.24-21.58 145.64-19.7 144.29-18.2 142.94-16.7 140.79-15.8 138.64-14.9 135.49-14.9L135.49-14.9 129.99-14.9 129.99 0 127.54 0 127.54-35.5ZM129.99-17.25L135.34-17.25Q137.99-17.25 139.74-18 141.49-18.75 142.49-19.95 143.49-21.15 143.92-22.58 144.34-24 144.34-25.35L144.34-25.35Q144.34-26.95 143.77-28.35 143.19-29.75 142.09-30.83 140.99-31.9 139.44-32.52 137.89-33.15 135.99-33.15L135.99-33.15 129.99-33.15 129.99-17.25ZM137.54-16.1L140.44-16.15 150.29 0 147.44 0 137.54-16.1ZM156.34-33.15L156.34-35.5 179.59-35.5 179.59-33.15 169.14-33.15 169.14 0 166.69 0 166.69-33.15 156.34-33.15Z" fill="#c56e33" data-fill-palette-color="primary"></path><path d="M184.59 0L182.14 0 197.14-37.05 197.34-37.05 212.34 0 209.59 0 196.54-33.15 198.24-34.1 184.59 0ZM188.79-11.75L189.39-14.05 205.14-14.05 205.84-11.75 188.79-11.75ZM220.54-35.5L228.74-35.5Q232.04-35.5 234.51-34.38 236.99-33.25 238.36-31.03 239.74-28.8 239.74-25.45L239.74-25.45Q239.74-23.45 239.11-21.58 238.49-19.7 237.11-18.2 235.74-16.7 233.61-15.8 231.49-14.9 228.49-14.9L228.49-14.9 222.99-14.9 222.99 0 220.54 0 220.54-35.5ZM222.99-17.25L228.49-17.25Q231.09-17.25 232.81-18.07 234.54-18.9 235.51-20.18 236.49-21.45 236.91-22.85 237.34-24.25 237.34-25.45L237.34-25.45Q237.34-27.15 236.79-28.55 236.24-29.95 235.16-30.98 234.09-32 232.54-32.58 230.99-33.15 228.99-33.15L228.99-33.15 222.99-33.15 222.99-17.25ZM248.24 0L248.24-35.5 250.69-35.5 250.69 0 248.24 0Z" fill="#551e19" data-fill-palette-color="secondary"></path></g></svg></g></svg></g></svg></g></svg></g><g transform="matrix(1,0,0,1,82.93738661247033,0)"><svg viewBox="0 0 42.12522677505933 45.41558358848746" height="45.41558358848746" width="42.12522677505933"><g><svg xmlns="http://www.w3.org/2000/svg" xmlns:xlink="http://www.w3.org/1999/xlink" version="1.1" x="0" y="0" viewBox="3.8510000705718994 0 92.7550048828125 100" enable-background="new 0 0 100 100" xml:space="preserve" height="45.41558358848746" width="42.12522677505933" class="icon-icon-0" data-fill-palette-color="accent" id="icon-0"><polygon points="3.851,90.866 12.387,74.301 67.655,80.524 88.345,66.468 96.606,80.72 71.543,100 " fill="#551e19" data-fill-palette-color="accent"></polygon><polygon points="15.184,68.561 66.465,74.709 86.154,62.069 77.618,47.176 62.656,55.544 23.919,51.435 " fill="#551e19" data-fill-palette-color="accent"></polygon><polygon points="26.493,46.844 35.259,29.866 57.08,32.013 65.838,27.498 74.869,43.157 61.276,50.354 " fill="#551e19" data-fill-palette-color="accent"></polygon><polygon points="37.398,25.43 55.96,27.498 63.504,23.69 50.327,0 " fill="#551e19" data-fill-palette-color="accent"></polygon></svg></g></svg></g><g></g></svg></g></svg></g></svg></g><defs></defs></svg><rect width="320" height="360" fill="none" stroke="none" visibility="hidden"></rect></g></svg></g></svg>